<?xml version="1.0" encoding="UTF-8"?><svg id="Capa_1" xmlns="http://www.w3.org/2000/svg" viewBox="0 0 574.19 508.8"><path d="M289.68.12c1.69.76,6.66.68,8.98.75,95.04,2.87,186.4,55.05,236.12,135.51,20.81,33.68,34.87,73.99,38.35,113.68,2.94,33.64-.19,67.37-9.71,99.65-19.93,67.62-68.36,125.06-129.99,159.06l-.86.02c-1.56-2.86-3.31-5.68-5.14-8.37-.25-.36-.65-.48-.87-.79-.64-.93-3.85-5.37-3.88-6-.08-1.42,4.1-3.01,5.29-3.72,41.74-24.86,76.19-59.17,98.8-102.19,45.13-85.91,34.65-187.82-24.49-263.97C427.95,28.05,296.77-5.6,183.55,37.83c-61.38,23.54-117.63,74.9-143.58,135.36-46.37,108.04-11.66,226.58,80.33,296.82,9.2,7.03,18.68,13.61,28.72,19.41.88,1.45-1.34,2.84-2.01,3.73-1.2,1.6-7.34,11.4-7.97,11.72-.95.47-1.99-.31-2.82-.74-5.39-2.81-12.26-7.57-17.35-11.09C55.13,449.01,9.54,377.77,1.46,300.09c-.39-3.78-1.76-13.46-1.38-16.64.02-.2.51-.04.58-.56.28-1.99-.51-6.23-.58-8.48-.27-9.18.21-20.1,1.11-29.26.21-2.14.37-6.01.82-7.88.05-.21.54-.17.55-.34.02-.35-.36-.98-.31-1.63.04-.52.56-.38.55-.52-.03-.45-.42-.93-.24-1.61.05-.21.55-.18.55-.34.02-.39-.44-.96-.29-1.58.05-.21.53-.16.52-.29-.02-.44-.46-1.18-.24-1.8l.54.28-.27-1.78.55.14-.27-1.92.54.28c-.34-1.01-.23-2.05.02-3.08,1.06-4.5,1.97-10.19,3.24-15.11C33.04,108.83,111.19,35.27,210.1,9.68c19.09-4.94,39.87-8.14,59.83-9.04,2.63-.12,18.79-.95,19.76-.52Z" fill="#293975"/><path d="M120.44,344.79c-.13.5-.25.96-.29,1.49-.51,6.51.01,14.39,0,21.08,0,2.73.48,6.52-.27,9.22-.12.41-.38,1.07-.6,1.91-2.84,10.85-11.42,15.51-22.21,16.07-3.46.18-11.82-.15-14.91-1.25-10.22-3.61-14.18-11.43-14.79-21.85v-114.03c2.6-21.81,27.9-16.38,43.5-17.07.1-.98-.26-1.89-.29-2.86-1.22-37.5.95-75.65,0-113.21,1.2-12.22,12.29-16.34,23.11-16.81,12-.53,25.12-.23,37.2-.27,31.08-.12,64.72,2.6,89.05,23.93,2.97,2.61,5.38,6.22,8.05,8.63,1.98,1.79,2.37.04,3.91-1.1,11.86-8.79,25.71-12.75,40.41-13.67,18.56-1.17,36.69,2.33,51.74,13.61,2.34-.68,5.53-2.56,7.93-2.66,8.63-.37,18.58-1.09,24.71,6.13.42.49.56,1.52,1.22,1.51,9.23-5.12,18.66-8.59,29.28-9.57,13.78-1.28,34.64.54,46.87,7.28,12.21,6.73,21.3,16.62,20.56,31.39-.79,15.95,1.01,32.85,0,48.69-.73,11.5-9.23,21.11-20.73,23.02-16.72,2.78-31.49-6.35-32.89-23.86-1.11-13.97.82-29.35,0-43.46-3.2-14.89-28.55-14.17-29.82,1.9-1.13,14.31.87,30.11.01,44.58-.6,4.79-2.24,8.28-5.33,11.89-6.72,7.84-19.84,10.34-29.68,9.02l.27,96.23c.84.14.43-.23.55-.67,5.38-19.56,25.94-35.24,45.35-39.43,28.44-6.15,58.68.17,76.59,24.16,22.95,30.74,2.38,68.48-31.41,78.41-31.76,9.34-71.02,1.72-87.61-29.19-1.35-2.52-2.07-5.47-3.07-8.14-.01,1.39-.37,2.87-.42,4.23-.54,13.15,2.92,21.69-9.36,30.56-7.85,5.67-18.46,6.95-27.89,5.61-6.15-.88-16.17-4.8-19.75-10.06-.68-1.01-.94-2.2-1.46-3.19-.1-.2,0-.51-.47-.35-.15.05-1.32,2.3-1.66,2.73-4.42,5.53-9.88,8.61-16.8,10.26-13.48,3.23-31.5-.06-38.44-13.26-2.45,1.41-4.58,3.28-6.99,4.76-21.31,13.08-57.75,12.92-79.21.21-10.83-6.42-21.45-17.93-25.05-30.19-.92-3.11-.94-5.91-1.57-8.77-.79-3.56-.79-6.65,0-10.21.19-.88-.04-2.36.28-3.37h-27.63ZM228.21,117.87c-10.56-4.14-26.78-6.18-38.14-6.57-17.19-.59-36.72-.59-53.91,0-9.18.32-20.77,1.97-21.75,13.26v113.76s.32,2.01.32,2.01l43.34.02c4,.33,7.94.97,11.89,1.65.05.11.15.24.27.27,4.19,1.02,8.18,2.49,11.95,4.6,2.44,1.37,5.04,3.76,7.48,4.69.02,0,.07.22.27.27,1.8.5,8.88-.31,11.21-.55.2-.02.25-.27.27-.27.79-.08,1.68.09,2.46,0,.21-.02.25-.27.27-.27,3.46-.41,6.95-.73,10.39-1.37.2-.04.25-.27.27-.27,1.13-.22,2.39-.29,3.56-.55.16-.04.25-.27.27-.27,1.42-.32,2.96-.45,4.38-.82.17-.04.25-.27.27-.27.16-.04.39.04.55,0,.2-.06.25-.27.27-.27.73-.2,1.63-.3,2.46-.55.14-.04.23-.26.27-.27,4.79-1.48,9.12-2.98,13.68-5.19.19-.09.36-.18.55-.27,8.13-4.04,18.44-10.79,24.06-17.91.41-.53.61-.86.83-1.5.02-.06.21-.09.22-.33,0-.1-.2-.15-.22-.22-.02-.09.03-.21,0-.27-.05-.1-.2-.18-.27-.27-1.05-1.49-2.75-2.72-3.97-4.1-3.99-4.53-6.77-8.64-9.16-14.22-.06-.14-.25-.23-.27-.27-.14-.33-.14-.76-.27-1.09-.06-.14-.26-.23-.27-.27-.53-1.37-1.23-3.5-1.64-4.92l.27-.14c.06-.64.1-.77-.54-.68-1.57-5.8-1.82-13.46-1.09-19.41,0-.02.25-.06.27-.27.23-1.72.44-2.95.82-4.65.89.17.44-.46.55-1.09.09-.49.17-1.23.27-1.64.01-.04.24-.13.27-.27.27-.99.47-2.04.82-3.01.02-.05.22-.13.27-.27.13-.33.14-.77.27-1.09.02-.05.21-.13.27-.27,3.18-7.37,7.66-12.95,13.28-18.6.15-.19.08-.35.02-.55-.46-1.66-4.8-5.08-5.76-6.85-7.63-6.73-14.3-11.15-23.68-15.29-.05-.02-.13-.21-.27-.27-.49-.21-1.15-.34-1.64-.55-.05-.02-.13-.21-.27-.27-.52-.21-1.11-.35-1.64-.55-.02,0-.07-.2-.27-.27-.14-.05-.41.05-.55,0-.02,0-.1-.21-.27-.27-.6-.21-1.5-.31-2.19-.55-.02,0-.07-.2-.27-.27-.13-.05-.38.04-.55,0-.07-.1-.16-.23-.27-.27ZM302.61,129.9c-.22.03-.25.27-.27.27-.74.13-1.7.12-2.46.27-.2.04-.25.27-.27.27-1.71.37-3.51.62-5.2,1.09-.17.05-.25.27-.27.27-.99.29-2.02.49-3.01.82-.14.05-.23.26-.27.27-.14.05-.4-.05-.55,0-.21.07-.26.27-.27.27-.35.13-.75.14-1.09.27-.14.05-.22.25-.27.27-.56.22-1.49.36-1.91.55-.18.08-.25.26-.27.27-.08.03-.2-.03-.27,0-.15.07-.23.25-.27.27-.07.03-.2-.04-.27,0-.15.07-.23.25-.27.27-.59.28-1.27.49-1.91.82-.12.06-.2.23-.27.27-20.83,10.91-34.81,31.09-29.81,55.5.03.16.27.25.27.27,2.78,12.55,10.28,22.25,20.51,29.8.09.07.17.2.27.27,8.69,6.3,17.63,9.37,28.17,10.94.02,0,.06.24.27.27.51.07,1.13-.07,1.64,0,.02,0,.06.25.27.27,1.69.2,3.52.13,5.2.27.02,0,.07.26.27.27,1.68.13,3.54.21,5.2.27.48.02.73,0,1.09,0,2.03.02,4.28.12,6.29,0,.2-.01.25-.27.27-.27.99-.06,2.03.08,3.01,0,.2-.02.25-.27.27-.27.7-.07,1.49.08,2.19,0,.21-.02.25-.27.27-.27.52-.06,1.13.07,1.64,0,.21-.03.25-.27.27-.27.51-.07,1.14.08,1.64,0,.21-.03.25-.27.27-.27,1.84-.3,3.53-.36,5.47-.82.17-.04.25-.27.27-.27,8.82-2.16,15.37-5.05,22.7-10.39.11-.08.18-.21.27-.27,6.08-4.51,12.09-10.49,15.64-17.31,1.02-1.97,1.52-4.11,2.41-5.93.03-.06.19-.16.27-.27s.06-.37.27-.55c.4-.33.35.57.55-.82.04-.26-.05-.58,0-.82,0-.02.23-.1.27-.27.47-1.84.77-3.6,1.09-5.47,0-.02.24-.06.27-.27.08-.49-.07-1.13,0-1.64,0-.02.25-.07.27-.27.09-.77-.06-1.66,0-2.46,0-.02.26-.07.27-.27.1-1.83.11-4.19,0-6.01-.01-.2-.27-.25-.27-.27-.25-3.46-.51-5.9-1.37-9.3-.03-.14-.26-.23-.27-.27-.13-.51-.18-1.12-.27-1.64-.25-1.41-.14-.46-.55-.82-.44-.39-.36-.96-.55-1.37-.07-.15-.25-.23-.27-.27-.14-.32-.14-.78-.27-1.09-.06-.14-.25-.22-.27-.27-2.91-6.54-5.71-10.42-10.67-15.58-.09-.09-.18-.18-.27-.27-5.69-5.84-10.7-9.12-18.05-12.58-.04-.02-.12-.2-.27-.27-.08-.03-.2.03-.27,0-.05-.02-.13-.21-.27-.27-.68-.3-1.5-.54-2.19-.82-.05-.02-.13-.22-.27-.27-.33-.13-.76-.15-1.09-.27-.05-.02-.13-.22-.27-.27-.69-.25-1.56-.34-2.19-.55-.02,0-.07-.21-.27-.27-.15-.05-.4.05-.55,0-.02,0-.1-.22-.27-.27-.73-.23-1.71-.34-2.46-.55-.02,0-.1-.23-.27-.27-1.34-.35-2.75-.53-4.1-.82-.02,0-.05-.23-.27-.27-9.66-1.97-22.25-1.83-32-.27ZM380.02,157.79c.32,1.03.31.32.55.55,1.68,1.58,4.05,9.54,4.65,12.03.04.17.27.25.27.27,1.36,5.99,1.48,13.9.55,19.96,0,.02-.24.05-.27.27-1.75,10.34-6.15,18.16-12.99,25.98-.89,1.35-9.39,7.98-9.46,8.61-.04.4.06.53.3.81.63.75,2.79,1.98,3.69,2.87,3.06,2.98,4.39,5.88,6.58,9.28,1.34,2.08,2.77,2.28,5.18,2.48,10.89.89,26.03-4.18,27.76-16.53.87-14.83-1.16-30.99-.01-45.67.38-4.82,4.52-10.99,8.62-13.53,8.9-5.51,24.02-2.57,28.28,7.56,2.11,5.03,1.17,8.8,1.12,13.89-.1,10.42.18,20.8.3,31.19.02,1.89-.26,3.96.28,5.94.18.68,1.05,2.86,1.42,3.82,8.51,22.32,46.89,15.36,43.41-10.04-.75-15.2,1.04-31.42.02-46.5-2.35-35.02-61.02-40.09-84.99-26.69-2.15,1.2-4.85,3.15-6.79,4.69-.57.45-1.9,2.2-2.46,2.2-.91,0-1.21-3.27-1.56-4.19-3.12-8.19-18.1-8.25-25.04-6.01-.56.18-2.31.55-1.86,1.44,4.23,3.74,8.13,7.87,11.1,12.71.53.86,1.06,1.62,1.36,2.6ZM269.92,223.68v.27c.18-.09.18-.18,0-.27ZM203.86,278.36c1.34,6.65,1.09,13.48,1.09,20.23,18.49-2.14,37.96,1.47,53.07,12.57v-64.11c0-2.39,3.42-9.59,4.81-11.87,1.48-2.42,3.25-4.51,5.31-6.45.53-.5,2.68-1.94,2.89-2.32.36-.66-.53-1.66-1.11-1.65-1.25,0-3.6,3.35-4.5,4.26-10.09,10.13-25.67,18.27-39.4,22.14-10.14,2.86-20.65,4.42-31.19,4.91-.36.27-.25.36-.15.71.24.85,2.17,3.11,2.73,4.11,2.53,4.55,5.06,11.27,6.18,16.1-.98-.25-.72,1.45.27,1.37ZM277.44,228.87c-2.21-1.36-2.85-.48-4.67.95-1.54,1.21-5.34,4.97-6.29,6.56-1.09,1.82-2.44,4.86-3.06,7.05-1.41,4.98-.72,11.8-.74,17.01-.06,18.3-.03,36.61.04,54.91,3.52,4.42,7.43,7.89,10.45,12.79,11.6,18.84,9.44,39.8-4.87,56.32-1.31,1.51-2.61,3.04-4.01,4.47-.78,1.32,1.2,3.96,2.09,5.05,9.89,12.12,38.69,12.05,46.76-2.16,1.04-1.83,1.42-3.8,2.31-5.39.49-46.69.43-93.51.03-140.22-1.13-1.92-1.2-4.6-2.35-6.68-.52-.93-.82-1.19-1.94-1.35-2.93-.41-6.4-.57-9.41-.84-.03-.13-.15-.26-.27-.27-2.5-.31-5.22-.76-7.66-1.37-.04-.01-.14-.24-.27-.27-.55-.14-1.22-.15-1.64-.27-.02,0-.07-.21-.27-.27-.15-.04-.4.04-.55,0-.04-.01-.13-.23-.27-.27-.45-.14-1-.15-1.37-.27-.04-.01-.13-.22-.27-.27-1.17-.4-2.4-.64-3.56-1.09-.05-.02-.13-.22-.27-.27-.5-.2-1.16-.33-1.64-.55-.05-.02-.13-.21-.27-.27-1.94-.87-3.79-1.95-5.74-2.73-.08-.09-.17-.21-.27-.27ZM354.03,230.78c-.12.06-.2.24-.27.27s-.2-.04-.27,0c-.15.07-.23.25-.27.27-.8.38-2.11.73-3.01,1.09-.14.06-.23.25-.27.27-.34.13-.75.14-1.09.27-.14.05-.23.26-.27.27-2.05.76-4.19,1.32-6.29,1.91-.14.04-.23.26-.27.27-.43.12-1.09.13-1.64.27-.13.03-.23.26-.27.27-5.35,1.29-10.8,1.59-16.24,2.22-.93.11-1.17.22-1.81.79-.09.08-.21.17-.27.27-.04.06.04.2,0,.27-.03.06-.21.13-.27.27-.96,2.23-1.46,5.11-1.92,7.51v137.27c1.69,24.13,50.7,24.49,53.07-.29l.02-135.34c-.4-6.91-4.74-14.5-10.12-18.87-.43-.34-3.1-2.06-3.41-2.05-.41.02-4.22,2.31-5.08,2.74ZM105.12,244.45c-6.04.07-13.29-.54-19.15,0-.2.02-.25.27-.27.27-7.64.91-13.76,4.87-14.49,12.99v113.19c.14,5.95,2.34,11.84,7.3,15.39,9.44,6.76,29.98,6.3,35.57-5.36,4.17-8.71,1.16-28.34,1.98-38.76.04-.53.16-.99.29-1.49h32.41c.36,0,2.23-5.75,2.64-6.66,2.15-4.81,5.58-9.47,8.99-13.43,9.88-11.47,24.51-18.53,39.38-20.92l.27-.27c.42-6.47.54-13-.55-19.41-.04-.22-.27-.25-.27-.27-.13-.73-.11-1.71-.27-2.46-.04-.2-.27-.25-.27-.27-.43-1.9-.77-3.88-1.37-5.74-.06-.18-.27-.25-.27-.27-.05-.15.05-.4,0-.55-.07-.21-.27-.26-.27-.27-.12-.35-.14-.75-.27-1.09-.05-.14-.25-.23-.27-.27-.13-.33-.14-.77-.27-1.09-.06-.14-.25-.22-.27-.27-.46-1.07-1.03-2.17-1.37-3.28-.31-1.02-.28-.32-.55-.55-1.1-.95-2.83-4.37-4.11-5.87-5.4-6.32-12.1-9.46-19.96-11.63-.02,0-.05-.22-.27-.27s-.59.06-.82,0c-.02,0-.11-.24-.27-.27-1.49-.34-2.72-.34-4.1-.55-.02,0-.06-.24-.27-.27-1.29-.18-2.8-.18-4.1-.27-.12-.43-.67-.87-.82-.27-13.55-.78-28.95-.11-42.67,0-.28-.45-1.04-.27-1.5-.28-2.91-.04-5.87-.09-8.77,0-.53.02-1.1-.28-.94.55ZM268.87,328.48c-17.28-23.86-47.53-30.43-75.4-23.47-34.09,8.51-56.22,45.45-31.99,76,24.85,31.33,89.68,29.38,109.55-6.68,7.63-13.86,7.23-32.89-2.15-45.84ZM492.34,322.74c-17.65-19.07-44.27-23.75-69.11-18.28-27.89,6.14-51.6,32.97-41.65,62.14,11.51,33.72,55,42.39,85.74,32.52,33.14-10.64,50.82-48.48,25.01-76.38ZM70.66,314.17h-.82c-.07,1-.55,5.16,0,5.74.16.16.82-.24.82-.41v-5.33ZM376.73,365.29c.2-.38-.17-.73-.27-.54-.2.38.17.73.27.54Z" fill="#140e09"/><path d="M228.21,117.87c.04.13.15.25.27.27.17.04.41-.05.55,0l.27.27c.69.24,1.58.34,2.19.55l.27.27c.14.05.41-.05.55,0l.27.27c.53.2,1.12.33,1.64.55l.27.27c.49.21,1.16.34,1.64.55l.27.27c9.38,4.15,16.05,8.56,23.68,15.29.96,1.76,5.3,5.19,5.76,6.85.06.2.13.36-.02.55-5.62,5.65-10.1,11.23-13.28,18.6l-.27.27c-.13.32-.15.76-.27,1.09l-.27.27c-.35.97-.55,2.02-.82,3.01l-.27.27c-.11.41-.19,1.15-.27,1.64-.92-.18-.41.49-.55,1.09-.39,1.69-.59,2.93-.82,4.65l-.27.27c-.73,5.95-.48,13.62,1.09,19.41.09.34.21.59.27.82.41,1.42,1.11,3.55,1.64,4.92l.27.27c.13.33.14.77.27,1.09l.27.27c2.39,5.58,5.17,9.69,9.16,14.22,1.22,1.38,2.92,2.61,3.97,4.1l.27.27c.03.06-.02.18,0,.27v.55c-.21.64-.41.97-.83,1.5-5.62,7.13-15.93,13.87-24.06,17.91l-.55.27c-4.56,2.21-8.89,3.71-13.68,5.19l-.27.27c-.83.25-1.73.34-2.46.55l-.27.27c-.16.04-.39-.04-.55,0l-.27.27c-1.41.37-2.95.5-4.38.82l-.27.27c-1.17.26-2.43.33-3.56.55l-.27.27c-3.45.64-6.93.96-10.39,1.37l-.27.27c-.78.09-1.67-.08-2.46,0l-.27.27c-2.33.23-9.42,1.04-11.21.55l-.27-.27c-2.44-.93-5.04-3.32-7.48-4.69-3.76-2.12-7.76-3.58-11.95-4.6-.04-.13-.15-.25-.27-.27-3.95-.69-7.89-1.33-11.89-1.65l-43.34-.02-.32-2.01v-113.76c.98-11.29,12.56-12.94,21.75-13.26,17.19-.59,36.72-.6,53.91,0,11.36.39,27.59,2.44,38.14,6.57ZM152.99,135.64v91.72c0,.3.67.39.94.42,7.41.87,16.5-.69,24.1,0,24.59-.9,51.92-7.31,56.43-35.46,7.4-46.25-38.94-56.24-74.76-56.97-.96-.02-6.46-.11-6.71.28Z" fill="#f39640"/><path d="M159.01,244.18s.38.24.82.27c1.31.09,2.82.1,4.1.27l.27.27c1.38.21,2.61.21,4.1.55l.27.27c.23.06.59-.06.82,0l.27.27c7.86,2.16,14.56,5.31,19.96,11.63,1.28,1.5,3.01,4.92,4.11,5.87-.08.49.05.65.55.55.34,1.11.9,2.22,1.37,3.28l.27.27c.14.32.14.76.27,1.09l.27.27c.13.34.15.75.27,1.09l.27.27c.05.14-.05.4,0,.55l.27.27c.59,1.86.94,3.84,1.37,5.74l.27.27c.16.75.14,1.73.27,2.46l.27.27c1.09,6.41.96,12.94.55,19.41l-.27.27c-14.87,2.4-29.5,9.45-39.38,20.92-3.41,3.96-6.85,8.62-8.99,13.43-.41.91-2.28,6.66-2.64,6.66h-32.41c-.13.5-.25.96-.29,1.49-.82,10.41,2.19,30.05-1.98,38.76-5.59,11.66-26.12,12.12-35.57,5.36-4.95-3.55-7.16-9.43-7.31-15.39v-113.19c.75-8.12,6.86-12.08,14.51-12.99l.27-.27c5.85-.54,13.1.07,19.15,0,3.72-.04,7.59-.24,11.21-.27,13.72-.11,29.12-.78,42.67,0ZM116.06,273.02v38.55c0,.23.66.48.94.42,13.94.1,40.73,2.77,44.93-15.54,3.58-15.62-12.2-23.16-25.22-23.84-5.21-.27-14.74-.6-19.71-.02-.32.04-.83.07-.94.42Z" fill="#f39640"/><path d="M354.03,230.78c.87-.43,4.68-2.72,5.08-2.74.31-.02,2.98,1.7,3.41,2.05,5.38,4.36,9.72,11.96,10.12,18.87l-.02,135.34c-2.37,24.78-51.38,24.42-53.07.29v-137.27c.46-2.4.97-5.27,1.93-7.51l.27-.27c.04-.07-.04-.21,0-.27l.27-.27c.64-.57.88-.68,1.81-.79,5.44-.63,10.89-.93,16.24-2.22l.27-.27c.55-.14,1.21-.16,1.64-.27l.27-.27c2.1-.59,4.24-1.16,6.29-1.91l.27-.27c.34-.13.76-.14,1.09-.27l.27-.27c.9-.37,2.2-.71,3.01-1.09l.27-.27c.07-.04.2.04.27,0l.27-.27Z" fill="#f39640"/><path d="M334.61,130.17l.27.27c1.35.29,2.76.47,4.1.82l.27.27c.75.2,1.73.32,2.46.55l.27.27c.15.05.4-.05.55,0l.27.27c.63.21,1.5.29,2.19.55l.27.27c.34.13.76.14,1.09.27l.27.27c.69.28,1.51.52,2.19.82l.27.27c.08.03.2-.03.27,0l.27.27c7.35,3.45,12.36,6.74,18.05,12.58l.27.27c4.96,5.17,7.76,9.04,10.67,15.58l.27.27c.14.32.14.77.27,1.09l.27.27c.19.41.11.97.55,1.37-.04.61-.15.96.55.82.09.52.14,1.14.27,1.64l.27.27c.86,3.4,1.12,5.84,1.37,9.3l.27.27c.11,1.82.1,4.19,0,6.01l-.27.27c-.06.8.09,1.69,0,2.46l-.27.27c-.07.51.08,1.15,0,1.64l-.27.27c-.33,1.87-.63,3.63-1.09,5.47l-.27.27c-.05.24.04.56,0,.82-.69-.14-.59.22-.55.82-.21.17-.19.43-.27.55l-.27.27c-.89,1.82-1.39,3.96-2.41,5.93-3.55,6.82-9.56,12.8-15.64,17.31l-.27.27c-7.33,5.34-13.89,8.23-22.7,10.39l-.27.27c-1.94.46-3.63.52-5.47.82l-.27.27c-.5.08-1.13-.07-1.64,0l-.27.27c-.51.07-1.12-.06-1.64,0l-.27.27c-.7.08-1.48-.07-2.19,0l-.27.27c-.98.08-2.02-.06-3.01,0l-.27.27c-2.01.12-4.26.02-6.29,0-.11-.43-1.01-.41-1.09,0-1.66-.07-3.52-.14-5.2-.27l-.27-.27c-1.68-.14-3.51-.07-5.2-.27l-.27-.27c-.52-.07-1.13.07-1.64,0l-.27-.27c-10.54-1.57-19.48-4.64-28.17-10.94l-.27-.27c-10.23-7.55-17.74-17.25-20.51-29.8l-.27-.27c-5-24.4,8.99-44.59,29.81-55.5l.27-.27c.65-.33,1.33-.54,1.91-.82l.27-.27c.07-.04.2.03.27,0l.27-.27c.08-.03.2.03.27,0l.27-.27c.43-.18,1.35-.32,1.91-.55l.27-.27c.34-.13.75-.15,1.09-.27l.27-.27c.14-.05.4.05.55,0l.27-.27c.99-.33,2.02-.53,3.01-.82l.27-.27c1.68-.48,3.49-.72,5.2-1.09l.27-.27c.76-.16,1.72-.15,2.46-.27l.27-.27c9.75-1.55,22.34-1.7,32,.27ZM342.91,167.81c-7.94-8.99-17.75-10.8-29.5-10.02-20.23,1.35-35.55,20.71-23.23,39.34,7.79,11.77,24.98,14.04,37.86,11.1,18.6-4.24,28.28-25.24,14.86-40.42Z" fill="#f39640"/><path d="M380.02,157.79c-.3-.98-.83-1.74-1.36-2.6-2.96-4.84-6.87-8.97-11.1-12.71-.45-.89,1.3-1.25,1.86-1.44,6.94-2.24,21.92-2.18,25.04,6.01.35.92.65,4.2,1.56,4.19.57,0,1.9-1.75,2.46-2.2,1.94-1.54,4.64-3.49,6.79-4.69,23.96-13.39,82.64-8.33,84.99,26.69,1.01,15.08-.77,31.3-.02,46.5,3.48,25.39-34.9,32.35-43.41,10.04-.37-.97-1.24-3.14-1.42-3.82-.53-1.98-.26-4.05-.28-5.94-.11-10.39-.39-20.77-.3-31.19.05-5.09.99-8.86-1.12-13.89-4.26-10.14-19.38-13.07-28.28-7.56-4.1,2.54-8.24,8.71-8.62,13.53-1.15,14.68.88,30.84.01,45.67-1.73,12.36-16.87,17.43-27.76,16.53-2.41-.2-3.84-.4-5.18-2.48-2.19-3.4-3.52-6.3-6.58-9.28-.91-.89-3.06-2.12-3.69-2.87-.24-.28-.34-.41-.3-.81.07-.64,8.57-7.26,9.46-8.61,6.83-7.81,11.23-15.64,12.99-25.98l.27-.27c.94-6.06.81-13.97-.55-19.96l-.27-.27c-.6-2.49-2.97-10.45-4.65-12.03.08-.49-.05-.65-.55-.55Z" fill="#f39640"/><path d="M277.44,228.87c.07.1.16.23.27.27,1.95.79,3.81,1.86,5.74,2.73l.27.27c.48.21,1.14.34,1.64.55l.27.27c1.15.46,2.39.7,3.56,1.09l.27.27c.37.12.92.14,1.37.27l.27.27c.15.04.39-.04.55,0l.27.27c.43.12,1.09.13,1.64.27l.27.27c2.44.61,5.15,1.06,7.66,1.37.02.13.15.26.27.27,3.01.28,6.48.44,9.41.84,1.11.15,1.42.41,1.94,1.35,1.15,2.07,1.22,4.76,2.35,6.68.4,46.71.46,93.52-.03,140.22-.89,1.59-1.27,3.56-2.31,5.39-8.06,14.21-36.86,14.28-46.76,2.16-.89-1.09-2.87-3.73-2.09-5.05,1.4-1.43,2.7-2.96,4.01-4.47,14.31-16.53,16.48-37.49,4.87-56.32-3.02-4.9-6.93-8.37-10.45-12.79-.07-18.3-.11-36.61-.04-54.91.02-5.21-.67-12.02.74-17.01.62-2.2,1.97-5.23,3.06-7.05.95-1.59,4.76-5.35,6.29-6.56,1.81-1.43,2.46-2.3,4.67-.95Z" fill="#f39640"/><path d="M268.87,328.48c9.38,12.95,9.78,31.99,2.15,45.84-19.87,36.07-84.7,38.01-109.55,6.68-24.23-30.55-2.1-67.49,31.99-76,27.88-6.96,58.12-.39,75.4,23.47ZM240.98,340.5c-9.78-13.3-30.51-16.04-44.58-8.23-11.32,6.28-17.58,19.08-10.26,30.92,11.37,18.37,42.39,18.59,54.93,1.35,4.81-6.6,4.74-17.47-.09-24.05Z" fill="#f39640"/><path d="M492.34,322.74c25.81,27.9,8.13,65.74-25.01,76.38-30.75,9.87-74.24,1.2-85.74-32.52-9.95-29.17,13.76-55.99,41.65-62.14,24.84-5.47,51.46-.79,69.11,18.28ZM437.13,329.84c-16.54,1.26-30.62,15.71-24.15,32.72,5.47,14.37,22.81,18.01,36.57,15.78,16.3-2.64,27.8-17.54,20.51-33.73-5.66-12.55-20.32-15.73-32.93-14.77Z" fill="#f39640"/><path d="M116.33,244.18c-3.62.03-7.5.23-11.21.27-.15-.83.42-.53.94-.55,2.9-.1,5.86-.04,8.77,0,.46,0,1.22-.18,1.5.28Z" fill="#18120e"/><path d="M70.66,314.17v5.33c0,.17-.66.57-.82.41-.55-.58-.07-4.74,0-5.74h.82Z" fill="#18120e"/><path d="M203.59,276.99c.1.44.18.92.27,1.37-.99.09-1.26-1.62-.27-1.37Z" fill="#18120e"/><path d="M316.56,234.61c-.36,0-.61.02-1.09,0,.09-.41.98-.43,1.09,0Z" fill="#18120e"/><path d="M250.36,169c-.11.64.35,1.27-.55,1.09.14-.6-.37-1.27.55-1.09Z" fill="#18120e"/><path d="M380.02,166.81c.4.36.3-.59.55.82-.7.14-.59-.21-.55-.82Z" fill="#18120e"/><path d="M380.56,196.61c-.19,1.39-.15.49-.55.82-.04-.6-.15-.96.55-.82Z" fill="#18120e"/><path d="M249.82,194.42c.65-.09.6.04.54.68l-.27.14c-.07-.23-.18-.48-.27-.82Z" fill="#18120e"/><path d="M159.83,244.45c-.44-.03-.78-.27-.82-.27.15-.59.7-.15.82.27Z" fill="#18120e"/><path d="M380.02,157.79c.5-.1.63.05.55.55-.24-.22-.23.48-.55-.55Z" fill="#18120e"/><path d="M193.74,263.59c.26.23.24-.47.55.55-.5.1-.63-.05-.55-.55Z" fill="#18120e"/><path d="M265.95,221.22v-.55c.02.07.22.12.22.22,0,.24-.2.27-.22.33Z" fill="#18120e"/><path d="M241.06,240.63c-.18.09-.36.18-.55.27l.55-.27Z" fill="#18120e"/><path d="M376.73,365.29c-.09.19-.46-.16-.27-.54.09-.19.46.16.27.54Z" fill="#fff"/><path d="M349.11,135.09l-.27-.27c.14.06.22.25.27.27Z" fill="#18120e"/><path d="M285.38,135.37s.12-.2.27-.27l-.27.27Z" fill="#18120e"/><path d="M349.65,135.37l-.27-.27c.15.07.23.25.27.27Z" fill="#18120e"/><path d="M283.19,136.46c.08-.04.15-.21.27-.27l-.27.27Z" fill="#18120e"/><path d="M367.98,148.22l-.27-.27c.09.09.18.18.27.27Z" fill="#18120e"/><path d="M342.82,132.63l-.27-.27c.21.07.26.27.27.27Z" fill="#18120e"/><path d="M252.28,162.71l.27-.27c-.06.14-.25.23-.27.27Z" fill="#18120e"/><path d="M251.73,164.08l.27-.27c-.05.14-.26.23-.27.27Z" fill="#18120e"/><path d="M378.92,164.08l-.27-.27c.02.05.21.13.27.27Z" fill="#18120e"/><path d="M379.47,165.44l-.27-.27s.21.13.27.27Z" fill="#18120e"/><path d="M250.64,167.36l.27-.27c-.04.14-.26.23-.27.27Z" fill="#18120e"/><path d="M381.11,169.54l-.27-.27s.24.14.27.27Z" fill="#18120e"/><path d="M385.49,170.64s-.23-.11-.27-.27l.27.27Z" fill="#18120e"/><path d="M248.72,175.01l.27-.27c-.03.22-.27.25-.27.27Z" fill="#18120e"/><path d="M382.75,179.11l-.27-.27s.26.07.27.27Z" fill="#18120e"/><path d="M382.48,185.4l.27-.27c-.01.2-.27.25-.27.27Z" fill="#18120e"/><path d="M382.2,188.13l.27-.27c-.02.21-.27.25-.27.27Z" fill="#18120e"/><path d="M381.93,190.05l.27-.27c-.04.22-.27.25-.27.27Z" fill="#18120e"/><path d="M253.65,192.24s-.24-.11-.27-.27l.27.27Z" fill="#18120e"/><path d="M380.56,195.79l.27-.27c-.04.17-.27.25-.27.27Z" fill="#18120e"/><path d="M379.47,198.25l.27-.27c-.08.12-.25.22-.27.27Z" fill="#18120e"/><path d="M252,200.44l-.27-.27s.22.13.27.27Z" fill="#18120e"/><path d="M252.55,201.8l-.27-.27s.21.13.27.27Z" fill="#18120e"/><path d="M265.95,220.4l-.27-.27c.07.1.23.18.27.27Z" fill="#18120e"/><path d="M361.14,221.76l.27-.27c-.09.07-.17.19-.27.27Z" fill="#18120e"/><path d="M274.43,222.31c-.11-.08-.18-.21-.27-.27l.27.27Z" fill="#18120e"/><path d="M269.92,223.68c.18.09.18.18,0,.27v-.27Z" fill="#18120e"/><path d="M385.76,190.87c.04-.22.27-.25.27-.27l-.27.27Z" fill="#18120e"/><path d="M277.72,229.14c-.11-.04-.2-.17-.27-.27.11.07.19.18.27.27Z" fill="#18120e"/><path d="M353.76,231.06c.07-.04.15-.21.27-.27l-.27.27Z" fill="#18120e"/><path d="M353.21,231.33s.12-.2.27-.27l-.27.27Z" fill="#18120e"/><path d="M283.73,232.15l-.27-.27c.14.06.22.25.27.27Z" fill="#18120e"/><path d="M338.17,232.42l.27-.27s-.11.23-.27.27Z" fill="#18120e"/><path d="M349.93,232.7s.13-.21.27-.27l-.27.27Z" fill="#18120e"/><path d="M285.65,232.97l-.27-.27c.14.06.22.25.27.27Z" fill="#18120e"/><path d="M348.56,233.24s.13-.22.27-.27l-.27.27Z" fill="#18120e"/><path d="M302.88,233.52c-.21-.03-.25-.27-.27-.27l.27.27Z" fill="#18120e"/><path d="M332.42,233.52l.27-.27s-.06.24-.27.27Z" fill="#18120e"/><path d="M304.8,233.79c-.21-.02-.25-.27-.27-.27l.27.27Z" fill="#18120e"/><path d="M330.51,233.79l.27-.27s-.06.25-.27.27Z" fill="#18120e"/><path d="M328.59,234.06l.27-.27s-.07.25-.27.27Z" fill="#18120e"/><path d="M289.48,234.34l-.27-.27c.14.05.23.26.27.27Z" fill="#18120e"/><path d="M310.27,234.34c-.2-.02-.25-.27-.27-.27l.27.27Z" fill="#18120e"/><path d="M326.13,234.34l.27-.27s-.07.26-.27.27Z" fill="#18120e"/><path d="M228.48,118.14c-.13-.03-.23-.15-.27-.27.11.04.2.17.27.27Z" fill="#18120e"/><path d="M322.85,234.61l.27-.27s-.07.26-.27.27Z" fill="#18120e"/><path d="M291.12,234.89l-.27-.27c.14.04.23.26.27.27Z" fill="#18120e"/><path d="M291.94,235.16l-.27-.27c.2.06.25.27.27.27Z" fill="#18120e"/><path d="M342,235.43s.13-.23.27-.27l-.27.27Z" fill="#18120e"/><path d="M293.85,235.71l-.27-.27c.13.04.23.26.27.27Z" fill="#18120e"/><path d="M340.08,235.98s.14-.24.27-.27l-.27.27Z" fill="#18120e"/><path d="M301.79,237.35c-.13-.01-.25-.14-.27-.27.13.02.25.14.27.27Z" fill="#18120e"/><path d="M321.75,239.26c.07-.1.18-.19.27-.27l-.27.27Z" fill="#18120e"/><path d="M321.48,239.81c.06-.15.24-.21.27-.27l-.27.27Z" fill="#18120e"/><path d="M229.3,118.42l-.27-.27c.21.07.26.27.27.27Z" fill="#18120e"/><path d="M170.22,242.27c-.12-.03-.22-.16-.27-.27.12.02.24.15.27.27Z" fill="#18120e"/><path d="M231.76,119.24l-.27-.27c.18.06.25.27.27.27Z" fill="#18120e"/><path d="M232.58,119.51l-.27-.27c.21.08.26.27.27.27Z" fill="#18120e"/><path d="M234.5,120.33l-.27-.27c.14.06.22.25.27.27Z" fill="#18120e"/><path d="M236.41,121.15l-.27-.27c.14.06.22.25.27.27Z" fill="#18120e"/><path d="M164.2,245l-.27-.27c.22.03.25.27.27.27Z" fill="#18120e"/><path d="M168.58,245.82l-.27-.27c.17.04.25.27.27.27Z" fill="#18120e"/><path d="M169.67,246.09l-.27-.27c.22.06.25.27.27.27Z" fill="#18120e"/><path d="M226.57,246.37l.27-.27s-.13.23-.27.27Z" fill="#18120e"/><path d="M223.83,247.19l.27-.27s-.07.22-.27.27Z" fill="#18120e"/><path d="M223.01,247.46l.27-.27s-.11.23-.27.27Z" fill="#18120e"/><path d="M218.36,248.56l.27-.27s-.11.24-.27.27Z" fill="#18120e"/><path d="M214.53,249.38l.27-.27s-.07.24-.27.27Z" fill="#18120e"/><path d="M203.86,251.02l.27-.27s-.07.25-.27.27Z" fill="#18120e"/><path d="M201.13,251.29l.27-.27s-.07.25-.27.27Z" fill="#18120e"/><path d="M189.91,251.84c-.21-.06-.26-.27-.27-.27l.27.27Z" fill="#18120e"/><path d="M302.33,130.17s.06-.24.27-.27l-.27.27Z" fill="#18120e"/><path d="M195.93,267.69l-.27-.27c.02.05.21.13.27.27Z" fill="#18120e"/><path d="M196.48,269.06l-.27-.27s.22.13.27.27Z" fill="#18120e"/><path d="M197.03,270.43l-.27-.27s.2.07.27.27Z" fill="#18120e"/><path d="M85.7,244.73s.07-.25.27-.27l-.27.27Z" fill="#18120e"/><path d="M334.88,130.45l-.27-.27c.22.05.25.27.27.27Z" fill="#18120e"/><path d="M299.6,130.72s.07-.23.27-.27l-.27.27Z" fill="#18120e"/><path d="M198.94,277.26l-.27-.27s.23.07.27.27Z" fill="#18120e"/><path d="M339.26,131.54l-.27-.27c.17.04.25.27.27.27Z" fill="#18120e"/><path d="M199.49,280l-.27-.27s.24.05.27.27Z" fill="#18120e"/><path d="M294.13,132.09s.1-.23.27-.27l-.27.27Z" fill="#18120e"/><path d="M199.76,299.68l.27-.27-.27.27Z" fill="#18120e"/><path d="M342,132.36l-.27-.27c.17.05.25.27.27.27Z" fill="#18120e"/><path d="M290.85,133.18s.13-.23.27-.27l-.27.27Z" fill="#18120e"/><path d="M290.03,133.45s.07-.2.27-.27l-.27.27Z" fill="#18120e"/><path d="M345.28,133.45l-.27-.27c.14.05.23.26.27.27Z" fill="#18120e"/><path d="M288.66,134s.13-.22.27-.27l-.27.27Z" fill="#18120e"/><path d="M346.65,134l-.27-.27c.14.06.22.25.27.27Z" fill="#18120e"/><path d="M286.47,134.82s.09-.2.27-.27l-.27.27Z" fill="#18120e"/><path d="M285.92,135.09s.12-.2.27-.27l-.27.27Z" fill="#18120e"/><path d="M197.3,271.25l-.27-.27s.22.1.27.27Z" fill="#18120e"/><path d="M152.99,135.64c.25-.4,5.75-.3,6.71-.28,35.81.73,82.16,10.73,74.76,56.97-4.51,28.15-31.84,34.56-56.43,35.46-7.59-.68-16.69.87-24.1,0-.28-.03-.94-.12-.94-.42v-91.72ZM157.09,139.61v83.93c0,.3.67.39.94.42,5.02.59,13.88.18,19.17,0,30.17-1.05,55.77-9.33,53.75-44.72-1.53-26.87-29.6-35.8-52.16-38.64-6.17-.78-13.85-1.43-19.94-1.1-.43.02-1.64-.46-1.78.11Z" fill="#18120e"/><path d="M116.06,273.02c.11-.36.62-.39.94-.42,4.96-.58,14.5-.25,19.71.02,13.02.67,28.8,8.22,25.22,23.84-4.2,18.31-30.99,15.64-44.93,15.54-.28.06-.94-.2-.94-.42v-38.55ZM120.16,276.85v31.3c11.71-.55,26.58,2.72,35.15-7.38,5.99-7.05,3.32-15.29-3.88-20.18-7.75-5.27-18.4-3.93-27.31-4.14-.91-.02-3.6-.89-3.95.4Z" fill="#18120e"/><path d="M342.91,167.81c13.41,15.19,3.74,36.18-14.86,40.42-12.88,2.94-30.07.67-37.86-11.1-12.32-18.63,3-37.99,23.23-39.34,11.74-.78,21.55,1.03,29.5,10.02ZM342.93,174.63c-6.98-11.93-18.41-14.57-31.63-12.66-16.16,2.34-27.78,17.54-17.94,32.81,7.01,10.89,24,12.69,35.51,9.35,12.22-3.54,20.97-17.68,14.06-29.51Z" fill="#18120e"/><path d="M240.98,340.5c4.83,6.57,4.9,17.44.09,24.05-12.55,17.23-43.57,17.02-54.93-1.35-7.32-11.84-1.06-24.64,10.26-30.92,14.07-7.81,34.8-5.07,44.58,8.23ZM210.65,332.57c-13.19,1.09-27.68,12.2-21.41,26.7,7.93,18.31,43.95,17.65,49.83-1.57,5.24-17.12-14.04-26.32-28.42-25.13Z" fill="#18120e"/><path d="M437.13,329.84c12.6-.96,27.27,2.22,32.93,14.77,7.3,16.19-4.2,31.1-20.51,33.73-13.76,2.22-31.1-1.41-36.57-15.78-6.47-17.01,7.6-31.46,24.15-32.72ZM464.44,342.42c-8.81-11.13-33.22-12.2-42.99-2.01-13.83,14.41-2.44,33.23,15.59,34.47,10.69.73,20.92-.63,27.77-9.44,5.11-6.58,4.77-16.54-.36-23.01Z" fill="#140e09"/></svg>